<?xml version="1.0" encoding="UTF-8" standalone="no"?>
<!-- Created with Inkscape (http://www.inkscape.org/) -->

<svg
   width="41.560036mm"
   height="40.802837mm"
   viewBox="0 0 41.560036 40.802837"
   version="1.1"
   id="svg1"
   xml:space="preserve"
   sodipodi:docname="loteria-logo.svg"
   inkscape:version="1.3.2 (091e20e, 2023-11-25, custom)"
   xmlns:inkscape="http://www.inkscape.org/namespaces/inkscape"
   xmlns:sodipodi="http://sodipodi.sourceforge.net/DTD/sodipodi-0.dtd"
   xmlns="http://www.w3.org/2000/svg"
   xmlns:svg="http://www.w3.org/2000/svg"><sodipodi:namedview
     id="namedview1"
     pagecolor="#ffffff"
     bordercolor="#999999"
     borderopacity="1"
     inkscape:showpageshadow="2"
     inkscape:pageopacity="0"
     inkscape:pagecheckerboard="0"
     inkscape:deskcolor="#d1d1d1"
     inkscape:document-units="mm"
     inkscape:zoom="3.7370136"
     inkscape:cx="78.404853"
     inkscape:cy="77.200683"
     inkscape:window-width="1920"
     inkscape:window-height="991"
     inkscape:window-x="1911"
     inkscape:window-y="-9"
     inkscape:window-maximized="1"
     inkscape:current-layer="svg1" /><defs
     id="defs1" /><g
     id="layer1"
     transform="translate(-60.388847,-86.60525)"
     style="fill:#0000d4"
     inkscape:export-filename="..\favicon.png"
     inkscape:export-xdpi="96"
     inkscape:export-ydpi="96"><g
       id="g10"
       transform="rotate(-30,91.238461,88.615599)"
       style="opacity:0.5;fill:#0000d4"><path
         id="path4"
         style="fill:#0000d4;fill-opacity:1;stroke-width:0.666758;stroke-linecap:round;stroke-linejoin:round"
         d="m 61.063717,86.3733 c 0.0018,0.35594 0.03675,0.71094 -0.168229,0.82475 -0.204973,0.11382 -0.691225,0.0513 -1.179492,0.0512 -3.165952,1e-5 -5.732458,2.56652 -5.732467,5.73247 0.01139,2.96342 2.279603,5.42969 5.231723,5.68854 l 0.500744,0.0434 12.812654,5.2e-4 V 86.37331 c -6.04e-4,-0.33863 -0.03121,-0.67654 -0.09147,-1.00976 -0.488946,-2.73234 -2.865255,-4.72182 -5.836102,-4.72226 -2.970845,-4.5e-4 -5.537352,2.56606 -5.537361,5.73201 z" /><path
         id="path8"
         style="opacity:0.5;fill:#0000d4;fill-opacity:1;stroke-width:0.666758;stroke-linecap:round;stroke-linejoin:round"
         d="m 85.581084,86.3733 c -0.0018,0.35594 -0.03675,0.71094 0.168229,0.82475 0.204974,0.11382 0.691225,0.0513 1.179493,0.0512 3.165949,1e-5 5.732459,2.56652 5.732469,5.73247 -0.0114,2.96342 -2.27961,5.42969 -5.231725,5.68854 l -0.500744,0.0434 -12.812655,5.2e-4 V 86.37331 c 6.05e-4,-0.33863 0.03121,-0.67654 0.09147,-1.00976 0.488946,-2.73234 2.865256,-4.72182 5.836102,-4.72226 2.970846,-4.5e-4 5.537353,2.56606 5.537361,5.73201 z" /><path
         id="path9"
         style="opacity:0.5;fill:#0000d4;fill-opacity:1;stroke-width:0.666758;stroke-linecap:round;stroke-linejoin:round"
         d="m 61.063717,112.64257 c 0.0018,-0.35594 0.03675,-0.71094 -0.168229,-0.82475 -0.204973,-0.11382 -0.691225,-0.0513 -1.179492,-0.0512 -3.165952,-1e-5 -5.732458,-2.56652 -5.732467,-5.73247 0.01139,-2.96342 2.279603,-5.42969 5.231723,-5.68854 l 0.500744,-0.0434 12.812654,-5.2e-4 v 12.34087 c -6.04e-4,0.33863 -0.03121,0.67654 -0.09147,1.00976 -0.488946,2.73234 -2.865255,4.72182 -5.836102,4.72226 -2.970845,4.5e-4 -5.537352,-2.56606 -5.537361,-5.73201 z" /><path
         id="path10"
         style="fill:#0000d4;fill-opacity:1;stroke-width:0.666758;stroke-linecap:round;stroke-linejoin:round"
         d="m 85.581084,112.64257 c -0.0018,-0.35594 -0.03675,-0.71094 0.168229,-0.82475 0.204974,-0.11382 0.691225,-0.0513 1.179493,-0.0512 3.165949,-1e-5 5.732459,-2.56652 5.732469,-5.73247 -0.0114,-2.96342 -2.27961,-5.42969 -5.231725,-5.68854 l -0.500744,-0.0434 -12.812655,-5.2e-4 v 12.34087 c 6.05e-4,0.33863 0.03121,0.67654 0.09147,1.00976 0.488946,2.73234 2.865256,4.72182 5.836102,4.72226 2.970846,4.5e-4 5.537353,-2.56606 5.537361,-5.73201 z" /></g></g></svg>
